<?xml version="1.0" encoding="UTF-8" standalone="no"?>
<!-- Created with Inkscape (http://www.inkscape.org/) -->

<svg
   xmlns:dc="http://purl.org/dc/elements/1.1/"
   xmlns:cc="http://creativecommons.org/ns#"
   xmlns:rdf="http://www.w3.org/1999/02/22-rdf-syntax-ns#"
   xmlns:svg="http://www.w3.org/2000/svg"
   xmlns="http://www.w3.org/2000/svg"
   xmlns:sodipodi="http://sodipodi.sourceforge.net/DTD/sodipodi-0.dtd"
   xmlns:inkscape="http://www.inkscape.org/namespaces/inkscape"
   width="594.45099"
   height="198.13629"
   id="svg3790"
   version="1.1"
   inkscape:version="0.47 r22583"
   sodipodi:docname="logo.svg">
  <defs
     id="defs3792">
    <inkscape:perspective
       sodipodi:type="inkscape:persp3d"
       inkscape:vp_x="0 : 526.18109 : 1"
       inkscape:vp_y="0 : 1000 : 0"
       inkscape:vp_z="744.09448 : 526.18109 : 1"
       inkscape:persp3d-origin="372.04724 : 350.78739 : 1"
       id="perspective3798" />
    <inkscape:perspective
       id="perspective4341"
       inkscape:persp3d-origin="0.5 : 0.33333333 : 1"
       inkscape:vp_z="1 : 0.5 : 1"
       inkscape:vp_y="0 : 1000 : 0"
       inkscape:vp_x="0 : 0.5 : 1"
       sodipodi:type="inkscape:persp3d" />
    <inkscape:perspective
       id="perspective4363"
       inkscape:persp3d-origin="0.5 : 0.33333333 : 1"
       inkscape:vp_z="1 : 0.5 : 1"
       inkscape:vp_y="0 : 1000 : 0"
       inkscape:vp_x="0 : 0.5 : 1"
       sodipodi:type="inkscape:persp3d" />
    <inkscape:perspective
       id="perspective4387"
       inkscape:persp3d-origin="0.5 : 0.33333333 : 1"
       inkscape:vp_z="1 : 0.5 : 1"
       inkscape:vp_y="0 : 1000 : 0"
       inkscape:vp_x="0 : 0.5 : 1"
       sodipodi:type="inkscape:persp3d" />
    <inkscape:perspective
       id="perspective4409"
       inkscape:persp3d-origin="0.5 : 0.33333333 : 1"
       inkscape:vp_z="1 : 0.5 : 1"
       inkscape:vp_y="0 : 1000 : 0"
       inkscape:vp_x="0 : 0.5 : 1"
       sodipodi:type="inkscape:persp3d" />
    <inkscape:perspective
       id="perspective4445"
       inkscape:persp3d-origin="0.5 : 0.33333333 : 1"
       inkscape:vp_z="1 : 0.5 : 1"
       inkscape:vp_y="0 : 1000 : 0"
       inkscape:vp_x="0 : 0.5 : 1"
       sodipodi:type="inkscape:persp3d" />
    <inkscape:perspective
       id="perspective4467"
       inkscape:persp3d-origin="0.5 : 0.33333333 : 1"
       inkscape:vp_z="1 : 0.5 : 1"
       inkscape:vp_y="0 : 1000 : 0"
       inkscape:vp_x="0 : 0.5 : 1"
       sodipodi:type="inkscape:persp3d" />
    <inkscape:perspective
       id="perspective4489"
       inkscape:persp3d-origin="0.5 : 0.33333333 : 1"
       inkscape:vp_z="1 : 0.5 : 1"
       inkscape:vp_y="0 : 1000 : 0"
       inkscape:vp_x="0 : 0.5 : 1"
       sodipodi:type="inkscape:persp3d" />
    <inkscape:perspective
       id="perspective4511"
       inkscape:persp3d-origin="0.5 : 0.33333333 : 1"
       inkscape:vp_z="1 : 0.5 : 1"
       inkscape:vp_y="0 : 1000 : 0"
       inkscape:vp_x="0 : 0.5 : 1"
       sodipodi:type="inkscape:persp3d" />
    <inkscape:perspective
       id="perspective2868"
       inkscape:persp3d-origin="0.5 : 0.33333333 : 1"
       inkscape:vp_z="1 : 0.5 : 1"
       inkscape:vp_y="0 : 1000 : 0"
       inkscape:vp_x="0 : 0.5 : 1"
       sodipodi:type="inkscape:persp3d" />
    <inkscape:perspective
       id="perspective2905"
       inkscape:persp3d-origin="0.5 : 0.33333333 : 1"
       inkscape:vp_z="1 : 0.5 : 1"
       inkscape:vp_y="0 : 1000 : 0"
       inkscape:vp_x="0 : 0.5 : 1"
       sodipodi:type="inkscape:persp3d" />
    <inkscape:perspective
       id="perspective2939"
       inkscape:persp3d-origin="0.5 : 0.33333333 : 1"
       inkscape:vp_z="1 : 0.5 : 1"
       inkscape:vp_y="0 : 1000 : 0"
       inkscape:vp_x="0 : 0.5 : 1"
       sodipodi:type="inkscape:persp3d" />
    <inkscape:perspective
       id="perspective2966"
       inkscape:persp3d-origin="0.5 : 0.33333333 : 1"
       inkscape:vp_z="1 : 0.5 : 1"
       inkscape:vp_y="0 : 1000 : 0"
       inkscape:vp_x="0 : 0.5 : 1"
       sodipodi:type="inkscape:persp3d" />
    <inkscape:perspective
       id="perspective3006"
       inkscape:persp3d-origin="0.5 : 0.33333333 : 1"
       inkscape:vp_z="1 : 0.5 : 1"
       inkscape:vp_y="0 : 1000 : 0"
       inkscape:vp_x="0 : 0.5 : 1"
       sodipodi:type="inkscape:persp3d" />
    <inkscape:perspective
       id="perspective3049"
       inkscape:persp3d-origin="0.5 : 0.33333333 : 1"
       inkscape:vp_z="1 : 0.5 : 1"
       inkscape:vp_y="0 : 1000 : 0"
       inkscape:vp_x="0 : 0.5 : 1"
       sodipodi:type="inkscape:persp3d" />
  </defs>
  <sodipodi:namedview
     id="base"
     pagecolor="#ffffff"
     bordercolor="#666666"
     borderopacity="1.0"
     inkscape:pageopacity="0.0"
     inkscape:pageshadow="2"
     inkscape:zoom="1.926147"
     inkscape:cx="208.43035"
     inkscape:cy="98.54579"
     inkscape:document-units="px"
     inkscape:current-layer="layer1"
     showgrid="false"
     inkscape:window-width="1280"
     inkscape:window-height="744"
     inkscape:window-x="-32000"
     inkscape:window-y="-32000"
     inkscape:window-maximized="1"
     inkscape:showpageshadow="false" />
  <metadata
     id="metadata3795">
    <rdf:RDF>
      <cc:Work
         rdf:about="">
        <dc:format>image/svg+xml</dc:format>
        <dc:type
           rdf:resource="http://purl.org/dc/dcmitype/StillImage" />
        <dc:title></dc:title>
      </cc:Work>
    </rdf:RDF>
  </metadata>
  <g
     inkscape:label="Layer 1"
     inkscape:groupmode="layer"
     id="layer1"
     transform="translate(-57.362304,-69.009978)">
    <g
       id="g3114"
       inkscape:export-filename="C:\Documents and Settings\Gary Doran\My Documents\My Pictures\logo75.png"
       inkscape:export-xdpi="34.067459"
       inkscape:export-ydpi="34.067459">
      <g
         id="g3092">
        <path
           style="fill:#008837;fill-opacity:1;fill-rule:evenodd;stroke:#000000;stroke-width:0.60504407px;stroke-linecap:butt;stroke-linejoin:miter;stroke-opacity:1"
           d="m 322.00858,69.3125 -264.343754,0 0,197.53125 268.531254,0 -10.375,-13.03125 20.09375,-24.3125 -18.21875,-20.8125 16.34375,-19.40625 -17.59375,-27.75 19.46875,-24.3125 L 315.82108,112.9375 335.28983,85.875 322.00858,69.3125 z"
           id="path2954" />
        <path
           style="fill:#7fc97f;fill-opacity:1;stroke:none"
           d="m 327.63358,76.375 -263.500004,0 0,182.59375 255.812504,0 -1.625,-2.03125 20.09375,-24.28125 -18.1875,-20.8125 16.3125,-19.4375 -17.5625,-27.75 19.4375,-24.28125 -20.09375,-24.28125 19.46875,-27.0625 L 327.63358,76.375 z"
           id="path2981" />
        <path
           sodipodi:type="arc"
           style="fill:#bfe6b8;fill-opacity:1;stroke:none"
           id="path4435"
           sodipodi:cx="128.33023"
           sodipodi:cy="101.20869"
           sodipodi:rx="15.097674"
           sodipodi:ry="20.130232"
           d="m 143.42791,101.20869 c 0,11.11762 -6.75946,20.13023 -15.09768,20.13023 -8.33821,0 -15.09767,-9.01261 -15.09767,-20.13023 0,-11.117623 6.75946,-20.130235 15.09767,-20.130235 8.33822,0 15.09768,9.012612 15.09768,20.130235 z"
           transform="matrix(1.1666666,0,0,1.1071429,-66.052325,-12.461395)" />
        <path
           sodipodi:type="arc"
           style="fill:#bfe6b8;fill-opacity:1;stroke:none"
           id="path4435-9"
           sodipodi:cx="128.33023"
           sodipodi:cy="101.20869"
           sodipodi:rx="15.097674"
           sodipodi:ry="20.130232"
           d="m 143.42791,101.20869 c 0,11.11762 -6.75946,20.13023 -15.09768,20.13023 -8.33821,0 -15.09767,-9.01261 -15.09767,-20.13023 0,-11.117623 6.75946,-20.130235 15.09767,-20.130235 8.33822,0 15.09768,9.012612 15.09768,20.130235 z"
           transform="matrix(0.875,0,0,0.875,-33.340694,151.04644)" />
        <path
           style="fill:#bfe6b8;fill-opacity:1;stroke:none"
           d="m 335.66483,92.25 c -2.55094,-0.574681 -5.15316,-0.96875 -7.8125,-0.96875 -28.4889,0 -51.59375,34.21885 -51.59375,76.40625 0,42.1874 23.10485,76.375 51.59375,76.375 0.45279,0 0.89375,-0.0766 1.34375,-0.0937 l 9.84375,-11.9375 -18.1875,-20.8125 16.3125,-19.4375 -17.5625,-27.75 19.4375,-24.28125 -20.0625,-24.28125 16.6875,-23.21875 z"
           id="path2986" />
        <flowRoot
           xml:space="preserve"
           id="flowRoot2990"
           style="font-size:40px;font-style:normal;font-weight:normal;fill:#000000;fill-opacity:1;stroke:none;font-family:Microsoft Sans Serif;-inkscape-font-specification:Microsoft Sans Serif"
           transform="matrix(2.3969475,0,0,3.839608,-136.44334,-501.52321)"><flowRegion
             id="flowRegion2992"><rect
               id="rect2994"
               width="77.37558"
               height="42.776745"
               x="97.505814"
               y="152.79242"
               style="font-family:Microsoft Sans Serif;-inkscape-font-specification:Microsoft Sans Serif" /></flowRegion><flowPara
             id="flowPara2996">$plit</flowPara></flowRoot>      </g>
      <g
         transform="translate(0,3.14535)"
         id="g3103">
        <path
           style="fill:#008837;fill-opacity:1;fill-rule:evenodd;stroke:#000000;stroke-width:0.60504407px;stroke-linecap:butt;stroke-linejoin:miter;stroke-opacity:1"
           d="m 385.2295,263.6984 266.28125,0 0,-197.531249 -272.71875,0 13.71875,16.5625 -18.8125,27.749999 19.4375,22.21875 -19.4375,24.96875 17.5625,27.75 -15.6875,19.4375 18.84375,21.5 -19.46875,23.59375 10.28125,13.75 z"
           id="path2956" />
        <path
           style="fill:#7fc97f;fill-opacity:1;stroke:none"
           d="m 379.4795,255.8234 265.5625,0 0,-182.593749 -260.46875,0 10.46875,12.65625 -18.84375,27.749999 19.46875,22.21875 -19.46875,24.96875 17.59375,27.75 -15.71875,19.4375 18.84375,21.5 -19.46875,23.59375 2.03125,2.71875 z"
           id="path2983" />
        <path
           sodipodi:type="arc"
           style="fill:#bfe6b8;fill-opacity:1;stroke:none"
           id="path4435-4"
           sodipodi:cx="128.33023"
           sodipodi:cy="101.20869"
           sodipodi:rx="15.097674"
           sodipodi:ry="20.130232"
           d="m 143.42791,101.20869 c 0,11.11762 -6.75946,20.13023 -15.09768,20.13023 -8.33821,0 -15.09767,-9.01261 -15.09767,-20.13023 0,-11.117623 6.75946,-20.130235 15.09767,-20.130235 8.33822,0 15.09768,9.012612 15.09768,20.130235 z"
           transform="matrix(1.1666666,0,0,1.1071429,476.20583,-15.606744)" />
        <path
           sodipodi:type="arc"
           style="fill:#bfe6b8;fill-opacity:1;stroke:none"
           id="path4435-9-8"
           sodipodi:cx="128.33023"
           sodipodi:cy="101.20869"
           sodipodi:rx="15.097674"
           sodipodi:ry="20.130232"
           d="m 143.42791,101.20869 c 0,11.11762 -6.75946,20.13023 -15.09768,20.13023 -8.33821,0 -15.09767,-9.01261 -15.09767,-20.13023 0,-11.117623 6.75946,-20.130235 15.09767,-20.130235 8.33822,0 15.09768,9.012612 15.09768,20.130235 z"
           transform="matrix(0.875,0,0,0.875,516.78081,147.90109)" />
        <path
           style="fill:#bfe6b8;fill-opacity:1;stroke:none"
           d="m 388.26075,240.1359 c 25.20336,-5.02446 44.65625,-36.89532 44.65625,-75.59375 0,-36.51409 -17.31249,-67.011499 -40.4375,-74.562499 l -15.65625,23.031249 19.46875,22.21875 -19.46875,24.96875 17.59375,27.75 -15.71875,19.4375 18.84375,21.5 -9.28125,11.25 z"
           id="path2988" />
        <flowRoot
           xml:space="preserve"
           id="flowRoot2990-9"
           style="font-size:40px;font-style:normal;font-weight:normal;fill:#000000;fill-opacity:1;stroke:none;font-family:Microsoft Sans Serif;-inkscape-font-specification:Microsoft Sans Serif"
           transform="matrix(2.4008035,0,0,3.8624772,221.84777,-504.74485)"><flowRegion
             id="flowRegion2992-4"><rect
               id="rect2994-8"
               width="77.37558"
               height="42.776745"
               x="97.505814"
               y="152.79242"
               style="font-family:Microsoft Sans Serif;-inkscape-font-specification:Microsoft Sans Serif" /></flowRegion><flowPara
             id="flowPara2996-8">Bill</flowPara></flowRoot>      </g>
      <flowRoot
         transform="matrix(12.656329,-5.534496,5.4793041,10.763367,-4007.8889,-1867.8939)"
         style="font-size:4.43629456px;font-style:normal;font-weight:bold;fill:#000000;fill-opacity:1;stroke:none;font-family:Microsoft Sans Serif;-inkscape-font-specification:Arial Bold"
         id="flowRoot3080"
         xml:space="preserve"><flowRegion
           id="flowRegion3082"><rect
             style="font-size:4.43629456px;font-weight:bold;font-family:Microsoft Sans Serif;-inkscape-font-specification:Arial Bold"
             y="297.47845"
             x="210.73837"
             height="41.518604"
             width="79.262787"
             id="rect3084" /></flowRegion><flowPara
           style="font-size:4.43629456px;font-style:normal;font-variant:normal;font-weight:bold;font-stretch:normal;font-family:Arial;-inkscape-font-specification:Arial Bold"
           id="flowPara3086">THE</flowPara></flowRoot>    </g>
  </g>
</svg>
